HIERARCHY
ROOT Hips
{
	OFFSET 0.000000 0.000000 0.000000
	CHANNELS 6 Xposition Yposition Zposition Xrotation Yrotation Zrotation
	JOINT LeftUpLeg_virtual
	{
		OFFSET 0.000000 0.000000 0.000000
		CHANNELS 3 Xrotation Yrotation Zrotation
		JOINT LeftUpLeg
		{
			OFFSET 11.394100 -6.187798 -0.413800
			CHANNELS 3 Xrotation Yrotation Zrotation
			JOINT LeftLeg
			{
				OFFSET 0.430247 -32.302673 3.732800
				CHANNELS 3 Xrotation Yrotation Zrotation
				JOINT LeftFoot
				{
					OFFSET -0.430247 -48.264931 -6.423300
					CHANNELS 3 Xrotation Yrotation Zrotation
					JOINT LeftToeBase
					{
						OFFSET 4.230900 -16.068199 23.438400
						CHANNELS 3 Xrotation Yrotation Zrotation
						JOINT LeftToe_End
						{
							OFFSET 4.510700 0.695400 19.974600
							CHANNELS 3 Xrotation Yrotation Zrotation
							End Site
							{
								OFFSET 0 0 0
							}
						}
					}
				}
			}
		}
	}
	JOINT RightUpLeg_virtual
	{
		OFFSET 0.000000 0.000000 0.000000
		CHANNELS 3 Xrotation Yrotation Zrotation
		JOINT RightUpLeg
		{
			OFFSET -11.333700 -6.187798 -0.413800
			CHANNELS 3 Xrotation Yrotation Zrotation
			JOINT RightLeg
			{
				OFFSET -0.430392 -32.302628 3.733000
				CHANNELS 3 Xrotation Yrotation Zrotation
				JOINT RightFoot
				{
					OFFSET 0.430392 -48.264973 -6.423500
					CHANNELS 3 Xrotation Yrotation Zrotation
					JOINT RightToeBase
					{
						OFFSET -4.230900 -16.068199 23.438400
						CHANNELS 3 Xrotation Yrotation Zrotation
						JOINT RightToe_End
						{
							OFFSET -4.510700 0.695400 19.974600
							CHANNELS 3 Xrotation Yrotation Zrotation
							End Site
							{
								OFFSET 0 0 0
							}
						}
					}
				}
			}
		}
	}
	JOINT Spine_virtual
	{
		OFFSET 0.000000 0.000000 0.000000
		CHANNELS 3 Xrotation Yrotation Zrotation
		JOINT Spine
		{
			OFFSET -0.002400 12.777504 0.315300
			CHANNELS 3 Xrotation Yrotation Zrotation
			JOINT Spine1
			{
				OFFSET -0.002067 5.816869 0.032633
				CHANNELS 3 Xrotation Yrotation Zrotation
				JOINT Spine1_split
				{
					OFFSET -0.002067 5.816869 0.032633
					CHANNELS 3 Xrotation Yrotation Zrotation
					JOINT Spine2
					{
						OFFSET -0.002067 5.816869 0.032633
						CHANNELS 3 Xrotation Yrotation Zrotation
						JOINT Neck_virtual
						{
							OFFSET 0.000000 0.000000 0.000000
							CHANNELS 3 Xrotation Yrotation Zrotation
							JOINT Neck
							{
								OFFSET -0.003700 21.199493 -0.826900
								CHANNELS 3 Xrotation Yrotation Zrotation
								JOINT Head
								{
									OFFSET 0.000000 20.442200 4.834800
									CHANNELS 3 Xrotation Yrotation Zrotation
									JOINT HeadTop_End
									{
										OFFSET 0.000000 34.668396 4.968400
										CHANNELS 3 Xrotation Yrotation Zrotation
										End Site
										{
											OFFSET 0 0 0
										}
									}
								}
							}
						}
						JOINT LeftShoulder_virtual
						{
							OFFSET 0.000000 0.000000 0.000000
							CHANNELS 3 Xrotation Yrotation Zrotation
							JOINT LeftShoulder
							{
								OFFSET 3.288150 8.794197 -1.372250
								CHANNELS 3 Xrotation Yrotation Zrotation
								JOINT LeftShoulder_split
								{
									OFFSET 3.288150 8.794197 -1.372250
									CHANNELS 3 Xrotation Yrotation Zrotation
									JOINT LeftArm
									{
										OFFSET 11.953299 -2.279007 -0.146200
										CHANNELS 3 Xrotation Yrotation Zrotation
										JOINT LeftForeArm
										{
											OFFSET 18.448900 0.000000 0.000000
											CHANNELS 3 Xrotation Yrotation Zrotation
											JOINT LeftHand
											{
												OFFSET 29.527798 0.000000 0.000000
												CHANNELS 3 Xrotation Yrotation Zrotation
												End Site
												{
													OFFSET 0 0 0
												}
											}
										}
									}
								}
							}
						}
						JOINT RightShoulder_virtual
						{
							OFFSET 0.000000 0.000000 0.000000
							CHANNELS 3 Xrotation Yrotation Zrotation
							JOINT RightShoulder
							{
								OFFSET -3.249400 8.794197 -1.372250
								CHANNELS 3 Xrotation Yrotation Zrotation
								JOINT RightShoulder_split
								{
									OFFSET -3.249400 8.794197 -1.372250
									CHANNELS 3 Xrotation Yrotation Zrotation
									JOINT RightArm
									{
										OFFSET -11.953299 -2.279007 -0.146200
										CHANNELS 3 Xrotation Yrotation Zrotation
										JOINT RightForeArm
										{
											OFFSET -18.448900 0.000000 0.000000
											CHANNELS 3 Xrotation Yrotation Zrotation
											JOINT RightHand
											{
												OFFSET -29.527802 0.000000 0.000000
												CHANNELS 3 Xrotation Yrotation Zrotation
												End Site
												{
													OFFSET 0 0 0
												}
											}
										}
									}
								}
							}
						}
					}
				}
			}
		}
	}
}
MOTION
Frames: 11
Frame Time: 0.03333333
-13.647831 25.115044 -69.969574 0.000000 0.000000 0.000000 -89.793724 19.260841 -0.252183 -61.500867 8.934301 35.122684 67.007762 8.674006 0.458051 35.405112 5.018362 -16.491644 -3.635303 0.467514 -1.703141 0.000000 0.000000 0.000000 -91.133937 22.934399 2.205731 -62.076406 -0.844358 -34.836649 102.927706 2.208067 -1.117186 32.153542 2.277831 19.485024 1.949403 3.797942 -0.411926 0.000000 0.000000 0.000000 -89.046433 19.033666 -1.187160 57.437185 9.880699 -2.024752 18.322220 4.071570 0.624213 0.306404 -2.604425 0.843618 0.000000 0.000000 0.000000 21.847608 4.108303 0.254366 12.330111 -2.007231 -3.148221 30.163686 0.693438 0.461109 0.000000 0.000000 0.000000 20.160857 3.435931 -0.099143 1.380039 -4.652294 -10.334287 -2.371237 -2.034020 -5.725488 -35.460116 -18.573021 -35.624757 -7.625517 -56.581376 -2.174176 0.000000 0.000000 0.000000 19.534373 3.287810 0.554676 0.018387 11.831817 16.797872 -0.725277 0.203557 -3.585953 -26.314212 -7.478127 35.325636 1.450153 45.717584 -2.261097 0.000000 0.000000 0.000000 
-14.312556 24.949425 -72.398026 0.000000 0.000000 0.000000 -97.417793 18.355857 -1.085820 -53.994343 6.414540 34.822367 66.776663 7.728859 1.611208 33.859522 4.581917 -14.126910 -3.983559 0.830845 -2.367840 0.000000 0.000000 0.000000 -98.556235 23.309916 3.343228 -47.753896 0.408454 -28.320707 99.482750 2.665918 -4.975657 28.651226 1.411033 23.448782 0.356820 3.151495 -0.314618 0.000000 0.000000 0.000000 -97.453002 18.739321 -1.661931 55.413728 10.396618 -0.496929 19.171368 4.167374 0.731899 0.572811 -2.744374 1.028529 0.000000 0.000000 0.000000 21.912135 4.207412 0.133676 12.393039 -2.725154 -3.007308 31.944443 0.609312 -1.247432 0.000000 0.000000 0.000000 20.557870 3.514597 0.148379 1.125666 -4.181106 -8.908593 -1.672237 -1.850436 -5.492778 -30.255727 -19.065377 -32.859275 -9.379440 -59.030087 -3.649071 0.000000 0.000000 0.000000 20.005032 3.482805 0.705409 -0.118044 12.726049 16.260020 -1.416632 2.220654 -3.518115 -15.617745 -6.552260 35.479452 1.417392 41.090807 -1.487077 0.000000 0.000000 0.000000 
-14.837340 24.865784 -74.580490 0.000000 0.000000 0.000000 -104.303634 17.582905 -1.781483 -47.265063 4.020655 35.324683 66.414806 5.991264 2.615886 33.483278 2.818084 -12.315097 -3.483211 1.173213 -2.620596 0.000000 0.000000 0.000000 -105.173862 23.517479 4.543680 -35.509812 3.058787 -23.146942 97.230652 2.650177 -7.980221 24.658427 -0.915310 24.134455 1.166776 2.469418 -0.080195 0.000000 0.000000 0.000000 -105.094550 18.814987 -1.808229 53.101463 9.546730 1.050459 19.049850 3.818349 0.770364 1.827753 -2.448337 1.646396 0.000000 0.000000 0.000000 21.183917 3.856948 0.029114 12.053015 -3.310955 -2.424994 32.078410 0.524477 -3.104978 0.000000 0.000000 0.000000 19.899259 3.087665 0.357041 0.701778 -4.268136 -7.822663 -0.949767 -1.624449 -4.656740 -24.554890 -19.376711 -31.248925 -10.178218 -59.344570 -4.489210 0.000000 0.000000 0.000000 19.519181 3.192626 0.833708 0.140546 13.462602 15.290213 -2.415033 3.746387 -3.326223 -4.434368 -3.893767 35.220519 1.532874 34.112352 -0.952739 0.000000 0.000000 0.000000 
-15.412843 25.064991 -76.916809 0.000000 0.000000 0.000000 -110.054449 17.216100 -1.934131 -41.111096 2.179370 36.572603 65.441060 3.957826 3.570274 33.518265 0.184533 -11.492866 -2.741866 1.433036 -2.322880 0.000000 0.000000 0.000000 -111.008073 23.510151 5.668503 -26.454673 5.740230 -19.643904 96.317033 2.194176 -9.781466 21.536645 -3.582814 21.790544 4.135576 1.971269 0.025561 0.000000 0.000000 0.000000 -111.534803 19.192710 -1.341048 50.435097 7.251409 2.227846 17.774502 2.921867 0.675751 2.384945 -1.983569 2.147688 0.000000 0.000000 0.000000 19.543704 2.987321 -0.103884 11.388535 -3.729746 -1.399981 30.980126 0.985157 -5.303756 0.000000 0.000000 0.000000 18.157172 2.131123 0.414337 0.236628 -4.399196 -7.184307 -0.268814 -1.434958 -3.349030 -17.649549 -19.597491 -30.554817 -9.488103 -57.339704 -4.209992 0.000000 0.000000 0.000000 17.981264 2.279149 0.849091 0.760524 13.469183 14.010052 -2.870931 4.186775 -3.121664 6.232409 -0.140485 35.115427 1.923528 29.794392 -0.840847 0.000000 0.000000 0.000000 
-16.104811 25.623196 -79.343124 0.000000 0.000000 0.000000 -114.532348 17.261256 -1.497722 -35.683408 1.087822 38.369937 63.710898 2.196862 4.320142 33.120817 -2.684655 -11.614382 -2.366997 1.572166 -1.491641 0.000000 0.000000 0.000000 -115.937134 23.473844 6.905118 -20.839291 7.909191 -17.501940 96.812003 1.970322 -10.852585 20.672788 -4.730318 18.912502 6.513435 1.734348 -0.336389 0.000000 0.000000 0.000000 -116.490502 19.616635 -0.322514 47.451141 3.700843 2.740496 15.500225 1.512838 0.403817 2.404458 -1.385055 2.197863 0.000000 0.000000 0.000000 17.076286 1.593747 -0.288792 9.984295 -3.904001 -0.302684 28.929150 2.127631 -7.847530 0.000000 0.000000 0.000000 15.618662 0.701170 0.299143 -0.145787 -4.327799 -6.633520 -0.191478 -0.959191 -2.472201 -8.969221 -19.691259 -29.962684 -8.044808 -53.291988 -3.369376 0.000000 0.000000 0.000000 15.499055 0.744979 0.694223 1.570973 12.372624 12.619197 -2.553317 3.441827 -3.022459 16.012414 3.744444 35.424059 2.484022 31.948469 -1.155499 0.000000 0.000000 0.000000 
-16.963951 26.383762 -81.801620 0.000000 0.000000 0.000000 -117.998963 17.458628 -0.691579 -31.274617 0.484422 40.433494 61.792011 1.163617 4.752688 31.963916 -5.078938 -12.525695 -2.515881 1.612622 -0.461750 0.000000 0.000000 0.000000 -119.997818 23.252476 7.997579 -18.247965 9.832739 -15.961259 98.485160 2.143376 -11.685407 21.931459 -4.070212 17.001919 6.730033 1.619945 -1.077799 0.000000 0.000000 0.000000 -120.183285 19.659291 0.889676 44.491388 -0.621478 2.601126 12.638828 -0.248732 -0.053442 1.557124 -1.048575 1.728349 0.000000 0.000000 0.000000 14.086004 -0.126740 -0.525152 7.744752 -3.888087 0.647951 26.354833 4.112033 -10.617842 0.000000 0.000000 0.000000 12.747735 -1.054220 0.004066 -0.370195 -3.614058 -5.987425 -0.574745 -0.561894 -2.169324 1.324052 -19.400118 -28.522192 -6.628325 -48.539798 -2.545129 0.000000 0.000000 0.000000 12.561565 -1.189073 0.327813 2.321474 10.189491 10.905071 -1.326906 1.924853 -2.817366 24.377983 6.728526 35.763601 3.256463 40.777790 -2.003487 0.000000 0.000000 0.000000 
-18.005756 26.865288 -84.492737 0.000000 0.000000 0.000000 -120.708663 17.659668 0.546275 -28.305892 0.140755 42.615521 60.192101 1.192176 4.798128 29.931610 -6.266694 -13.639008 -2.472717 1.595909 0.107010 0.000000 0.000000 0.000000 -123.098887 22.759053 8.885467 -17.997569 11.846628 -14.544625 100.691079 2.515983 -12.379551 23.526047 -2.593528 15.566204 6.342257 1.497453 -1.719579 0.000000 0.000000 0.000000 -122.609177 19.291905 1.996073 41.780325 -5.072393 1.926015 9.767223 -2.140649 -0.570767 0.161560 -0.708213 1.091774 0.000000 0.000000 0.000000 11.030183 -1.936234 -0.823869 4.638495 -3.795366 1.094541 23.610536 6.949447 -13.483796 0.000000 0.000000 0.000000 10.104084 -2.798928 -0.382814 -0.388676 -2.146801 -5.111656 -1.352225 -0.405637 -2.337113 12.430556 -18.401800 -25.714525 -5.557906 -44.478783 -1.865944 0.000000 0.000000 0.000000 9.618820 -3.198651 -0.193966 2.810196 7.301035 9.001223 0.760645 0.542603 -2.613408 31.001901 8.396369 36.087345 4.478807 53.198277 -3.489660 0.000000 0.000000 0.000000 
-19.127682 26.810299 -87.016388 0.000000 0.000000 0.000000 -122.699608 17.620165 1.876491 -26.751209 -0.098959 44.822860 59.186929 2.085191 4.525318 27.133297 -6.195608 -14.726598 -1.473528 1.588823 -0.094246 0.000000 0.000000 0.000000 -125.095980 22.012761 9.584094 -19.383739 14.046371 -13.107674 102.848517 2.745644 -12.854686 23.594738 -1.328377 13.503868 7.646538 1.340299 -1.813878 0.000000 0.000000 0.000000 -123.991293 18.492432 2.660664 39.571644 -9.099758 0.942145 7.343375 -3.850666 -1.020360 -0.544173 -0.279436 0.892788 0.000000 0.000000 0.000000 8.233532 -3.556863 -1.090366 0.751716 -3.597655 0.856174 20.907718 10.315002 -16.273061 0.000000 0.000000 0.000000 8.037137 -4.335735 -0.751676 -0.235821 -0.230329 -3.922874 -2.216021 -0.445786 -3.110105 22.710297 -16.223675 -22.015216 -4.804633 -42.250895 -1.283294 0.000000 0.000000 0.000000 7.175256 -4.878200 -0.728318 2.911518 4.419351 7.283827 2.872581 -0.145482 -2.058215 35.763359 9.085341 36.164803 5.842156 62.902928 -5.247366 0.000000 0.000000 0.000000 
-20.076685 26.043995 -89.493149 0.000000 0.000000 0.000000 -123.868103 17.257784 3.138957 -26.462648 -0.350958 46.888347 58.638246 3.339121 4.132683 24.036607 -5.328465 -16.033992 0.560282 1.632214 -1.068645 0.000000 0.000000 0.000000 -126.135754 21.135220 10.219651 -21.913769 16.165009 -11.764174 104.854837 2.630662 -12.899273 22.007059 -0.790993 10.467816 10.414083 1.130728 -1.266083 0.000000 0.000000 0.000000 -124.553868 17.394417 2.916365 37.955891 -12.289919 -0.128297 5.638355 -5.156164 -1.309366 -0.916269 0.068737 0.821785 0.000000 0.000000 0.000000 6.005349 -4.786035 -1.265995 -3.283669 -3.413606 0.015539 18.480356 14.065086 -18.850219 0.000000 0.000000 0.000000 6.533750 -5.426383 -1.068326 0.021183 1.972820 -2.841063 -2.894226 -0.973549 -3.788514 31.104753 -13.061961 -18.100459 -3.858683 -42.303244 -0.530697 0.000000 0.000000 0.000000 5.481780 -5.984830 -1.156745 2.637284 1.995919 6.179565 4.647248 0.282143 -1.434355 38.244183 9.437706 35.854918 5.667848 65.256044 -5.511292 0.000000 0.000000 0.000000 
-20.730873 24.762386 -91.797150 0.000000 0.000000 0.000000 -124.022220 16.612460 4.181257 -27.083090 -0.568338 48.624472 58.204604 4.540406 3.725415 21.029840 -4.219012 -17.585440 3.258506 1.631728 -2.476040 0.000000 0.000000 0.000000 -126.443891 20.240825 10.960661 -24.990848 17.538140 -10.941205 106.604889 2.342923 -12.468203 20.615625 -0.634345 7.433368 12.726083 0.924779 -0.550287 0.000000 0.000000 0.000000 -124.362568 16.373111 3.100883 36.743573 -14.530386 -1.309606 4.619891 -5.939169 -1.439088 -0.642213 0.421769 1.160877 0.000000 0.000000 0.000000 4.384905 -5.536052 -1.334524 -6.993704 -3.237284 -1.336695 16.494535 17.730382 -21.084147 0.000000 0.000000 0.000000 5.466991 -5.985274 -1.346437 0.343219 3.927788 -2.154391 -3.651846 -1.447111 -4.346916 37.059701 -9.498952 -14.630608 -2.454684 -43.605550 0.528640 0.000000 0.000000 0.000000 4.472527 -6.424858 -1.410702 2.170270 0.365615 6.170024 5.482810 1.308188 -0.963845 38.430333 10.183230 35.371548 3.588299 59.798320 -3.844328 0.000000 0.000000 0.000000 
-21.029953 23.440304 -93.615829 0.000000 0.000000 0.000000 -123.214768 15.819601 4.834851 -28.300532 -0.493772 49.871760 57.728595 5.490159 3.315305 18.668772 -3.404557 -19.243681 5.909187 1.549015 -3.727645 0.000000 0.000000 0.000000 -126.284133 19.440086 11.702000 -28.005913 17.540141 -10.850678 107.575459 2.200577 -11.916099 20.501627 -0.413871 5.676571 12.917913 0.670979 -0.241544 0.000000 0.000000 0.000000 -123.867926 15.519459 3.421914 35.704028 -15.925310 -2.683077 3.995222 -6.201657 -1.544878 0.603476 0.173252 1.309727 0.000000 0.000000 0.000000 3.339344 -5.830468 -1.339771 -9.849155 -2.967979 -2.681450 14.904929 20.864189 -22.862638 0.000000 0.000000 0.000000 4.455394 -6.098275 -1.678699 0.656209 5.415895 -2.085731 -4.292248 -1.760941 -4.756452 40.517912 -6.224807 -11.848730 -0.614200 -44.573596 1.766503 0.000000 0.000000 0.000000 3.938701 -6.326512 -1.522606 1.643039 -0.724235 7.236250 5.369268 2.328564 -0.798968 36.596625 11.597451 34.888255 1.659808 49.335631 -2.200510 0.000000 0.000000 0.000000 
